solid X5S-Component-lot-2
facet normal 1.351415223856977e-07 -1.0979998222924557e-07 -0.9999999999999849
  outer loop
    vertex 1267.940650627406 243.68105406438485 0.0
    vertex 1272.6179792109995 240.0724862881255 1.128606355100814e-05
    vertex 1272.4242898179625 238.6012692843732 1.128606355100814e-05
  endloop
endfacet
facet normal 1.351415223856977e-07 -1.0979998222924557e-07 -0.9999999999999849
  outer loop
    vertex 1272.6179792109995 240.0724862881255 1.128606355100814e-05
    vertex 1267.940650627406 243.68105406438485 0.0
    vertex 1274.0891962451476 248.69607777454968 7.796173332774714e-06
  endloop
endfacet
facet normal 1.351415223856977e-07 -1.0979998222924557e-07 -0.9999999999999849
  outer loop
    vertex 1272.6179792109995 240.0724862881255 1.128606355100814e-05
    vertex 1274.0891962451476 248.69607777454968 7.796173332774714e-06
    vertex 1273.1858477780622 241.44344228437316 1.128606355100814e-05
  endloop
endfacet
facet normal 1.351415223856977e-07 -1.0979998222924557e-07 -0.9999999999999849
  outer loop
    vertex 1273.1858477780622 241.44344228437316 1.128606355100814e-05
    vertex 1274.0891962451476 248.69607777454968 7.796173332774714e-06
    vertex 1274.0891962147518 242.62070888758382 1.128606355100814e-05
  endloop
endfacet
facet normal 1.351415223856977e-07 -1.0979998222924557e-07 -0.9999999999999849
  outer loop
    vertex 1282.128075451595 248.70072887326097 8.482157657407895e-06
    vertex 1283.031423857863 241.44344228437322 1.128606355100814e-05
    vertex 1282.1280754211732 242.62070888758382 1.128606355100814e-05
  endloop
endfacet
facet normal 1.351415223856977e-07 -1.0979998222924557e-07 -0.9999999999999849
  outer loop
    vertex 1283.031423857863 241.44344228437322 1.128606355100814e-05
    vertex 1282.128075451595 248.70072887326097 8.482157657407895e-06
    vertex 1287.2082566236224 248.70080232757937 7.338603631179552e-06
  endloop
endfacet
facet normal 1.351415223856977e-07 -1.0979998222924557e-07 -0.9999999999999849
  outer loop
    vertex 1283.031423857863 241.44344228437322 1.128606355100814e-05
    vertex 1287.2082566236224 248.70080232757937 7.338603631179552e-06
    vertex 1283.5992924249256 240.07248628812556 1.128606355100814e-05
  endloop
endfacet
facet normal 1.351415223856977e-07 -1.0979998222924557e-07 -0.9999999999999849
  outer loop
    vertex 1283.5992924249256 240.07248628812556 1.128606355100814e-05
    vertex 1287.2082566236224 248.70080232757937 7.338603631179552e-06
    vertex 1283.7929818179625 238.6012692843732 1.128606355100814e-05
  endloop
endfacet
facet normal 1.351415223856977e-07 -1.0979998222924557e-07 -0.9999999999999849
  outer loop
    vertex 1283.7929818179625 238.6012692843732 1.128606355100814e-05
    vertex 1287.2082566236224 248.70080232757937 7.338603631179552e-06
    vertex 1286.7997596588668 228.36142207333845 8.663115008111788e-06
  endloop
endfacet
facet normal 1.351415223856977e-07 -1.0979998222924557e-07 -0.9999999999999849
  outer loop
    vertex 1286.7997596588668 228.36142207333845 8.663115008111788e-06
    vertex 1287.2082566236224 248.70080232757937 7.338603631179552e-06
    vertex 1286.8563178055188 228.7752589318314 8.663115008111788e-06
  endloop
endfacet
facet normal 1.351415223856977e-07 -1.0979998222924557e-07 -0.9999999999999849
  outer loop
    vertex 1286.8563178055188 228.7752589318314 8.663115008111788e-06
    vertex 1287.2082566236224 248.70080232757937 7.338603631179552e-06
    vertex 1287.0180576406 229.16035631581087 8.663115008111788e-06
  endloop
endfacet
facet normal 1.351415223856977e-07 -1.0979998222924557e-07 -0.9999999999999849
  outer loop
    vertex 1287.0180576406 229.16035631581087 8.663115008111788e-06
    vertex 1287.2082566236224 248.70080232757937 7.338603631179552e-06
    vertex 1287.2739568616378 229.49047047496222 8.663114996831922e-06
  endloop
endfacet
facet normal 1.351415223856977e-07 -1.0979998222924557e-07 -0.9999999999999849
  outer loop
    vertex 1287.2739568616378 229.49047047496222 8.663114996831922e-06
    vertex 1287.2082566236224 248.70080232757937 7.338603631179552e-06
    vertex 1292.2766211189273 243.65325392206893 1.132345213301633e-05
  endloop
endfacet
facet normal 1.351415223856977e-07 -1.0979998222924557e-07 -0.9999999999999849
  outer loop
    vertex 1287.2739568616378 229.49047047496222 8.663114996831922e-06
    vertex 1292.2766211189273 243.65325392206893 1.132345213301633e-05
    vertex 1287.6065763596118 229.74310467487877 8.663114996831922e-06
  endloop
endfacet
facet normal 1.351415223856977e-07 -1.0979998222924557e-07 -0.9999999999999849
  outer loop
    vertex 1287.6065763596118 229.74310467487877 8.663114996831922e-06
    vertex 1292.2766211189273 243.65325392206893 1.132345213301633e-05
    vertex 1287.9932486654147 229.90104231233386 8.663114996831922e-06
  endloop
endfacet
facet normal 1.351415223856977e-07 -1.0979998222924557e-07 -0.9999999999999849
  outer loop
    vertex 1287.9932486654147 229.90104231233386 8.663114996831922e-06
    vertex 1292.2766211189273 243.65325392206893 1.132345213301633e-05
    vertex 1288.4076227004127 229.95352019833933 8.663114996831922e-06
  endloop
endfacet
facet normal 1.351415223856977e-07 -1.0979998222924557e-07 -0.9999999999999849
  outer loop
    vertex 1288.4076227004127 229.95352019833933 8.663114996831922e-06
    vertex 1292.2766211189273 243.65325392206893 1.132345213301633e-05
    vertex 1288.8214595589056 229.89696205168764 8.663114996831922e-06
  endloop
endfacet
facet normal 1.351415223856977e-07 -1.0979998222924557e-07 -0.9999999999999849
  outer loop
    vertex 1288.8214595589056 229.89696205168764 8.663114996831922e-06
    vertex 1292.2766211189273 243.65325392206893 1.132345213301633e-05
    vertex 1289.206556942885 229.73522221660636 8.663114996831922e-06
  endloop
endfacet
facet normal 1.351415223856977e-07 -1.0979998222924557e-07 -0.9999999999999849
  outer loop
    vertex 1289.206556942885 229.73522221660636 8.663114996831922e-06
    vertex 1292.2766211189273 243.65325392206893 1.132345213301633e-05
    vertex 1289.5366711020365 229.47932299556854 8.663114996831922e-06
  endloop
endfacet
facet normal 1.351415223856977e-07 -1.0979998222924557e-07 -0.9999999999999849
  outer loop
    vertex 1289.5366711020365 229.47932299556854 8.663114996831922e-06
    vertex 1292.2766211189273 243.65325392206893 1.132345213301633e-05
    vertex 1289.789305301953 229.1467034975945 8.663114996831922e-06
  endloop
endfacet
facet normal 1.351415223856977e-07 -1.0979998222924557e-07 -0.9999999999999849
  outer loop
    vertex 1289.789305301953 229.1467034975945 8.663114996831922e-06
    vertex 1292.2766211189273 243.65325392206893 1.132345213301633e-05
    vertex 1289.9472429394082 228.76003119179146 8.663115008111788e-06
  endloop
endfacet
facet normal 1.351415223856977e-07 -1.0979998222924557e-07 -0.9999999999999849
  outer loop
    vertex 1289.9472429394082 228.76003119179146 8.663115008111788e-06
    vertex 1292.2766211189273 243.65325392206893 1.132345213301633e-05
    vertex 1289.9997208254138 228.34565715679364 8.663115008111788e-06
  endloop
endfacet
facet normal 1.351415223856977e-07 -1.0979998222924557e-07 -0.9999999999999849
  outer loop
    vertex 1289.9997208254138 228.34565715679364 8.663115008111788e-06
    vertex 1292.2766211189273 243.65325392206893 1.132345213301633e-05
    vertex 1292.2766211189269 224.49258133037554 1.1711195505270666e-05
  endloop
endfacet
facet normal 1.351415223856977e-07 -1.0979998222924557e-07 -0.9999999999999849
  outer loop
    vertex 1267.940650627406 243.68105406438485 0.0
    vertex 1273.0369299128204 224.4925813303753 1.1367918672977595e-05
    vertex 1267.9406506274008 229.56792987821322 6.42363001945867e-06
  endloop
endfacet
facet normal 1.351415223856977e-07 -1.0979998222924557e-07 -0.9999999999999849
  outer loop
    vertex 1273.0369299128204 224.4925813303753 1.1367918672977595e-05
    vertex 1267.940650627406 243.68105406438485 0.0
    vertex 1272.4242898179625 238.6012692843732 1.128606355100814e-05
  endloop
endfacet
facet normal 1.351415223856977e-07 -1.0979998222924557e-07 -0.9999999999999849
  outer loop
    vertex 1273.0369299128204 224.4925813303753 1.1367918672977595e-05
    vertex 1272.4242898179625 238.6012692843732 1.128606355100814e-05
    vertex 1272.6179792109995 237.13005228062084 1.1286063573567871e-05
  endloop
endfacet
facet normal 1.351415223856977e-07 -1.0979998222924557e-07 -0.9999999999999849
  outer loop
    vertex 1273.0369299128204 224.4925813303753 1.1367918672977595e-05
    vertex 1272.6179792109995 237.13005228062084 1.1286063573567871e-05
    vertex 1273.1858477780622 235.75909628437316 1.1286063573567871e-05
  endloop
endfacet
facet normal 1.351415223856977e-07 -1.0979998222924557e-07 -0.9999999999999849
  outer loop
    vertex 1273.0369299128204 224.4925813303753 1.1367918672977595e-05
    vertex 1273.1858477780622 235.75909628437316 1.1286063573567871e-05
    vertex 1274.0891962147518 234.58182968116256 1.1286063573567871e-05
  endloop
endfacet
facet normal 1.351415223856977e-07 -1.0979998222924557e-07 -0.9999999999999849
  outer loop
    vertex 1273.0369299128204 224.4925813303753 1.1367918672977595e-05
    vertex 1274.0891962147518 234.58182968116256 1.1286063573567871e-05
    vertex 1275.2664628179625 233.67848124447272 1.1286063573567871e-05
  endloop
endfacet
facet normal 1.351415223856977e-07 -1.0979998222924557e-07 -0.9999999999999849
  outer loop
    vertex 1273.0369299128204 224.4925813303753 1.1367918672977595e-05
    vertex 1275.2664628179625 233.67848124447272 1.1286063573567871e-05
    vertex 1287.5929235413955 226.97185701352572 8.663115019391653e-06
  endloop
endfacet
facet normal 1.351415223856977e-07 -1.0979998222924557e-07 -0.9999999999999849
  outer loop
    vertex 1273.0369299128204 224.4925813303753 1.1367918672977595e-05
    vertex 1287.5929235413955 226.97185701352572 8.663115019391653e-06
    vertex 1292.2766211189269 224.49258133037554 1.1711195505270666e-05
  endloop
endfacet
facet normal 1.351415223856977e-07 -1.0979998222924557e-07 -0.9999999999999849
  outer loop
    vertex 1287.5929235413955 226.97185701352572 8.663115019391653e-06
    vertex 1275.2664628179625 233.67848124447272 1.1286063573567871e-05
    vertex 1276.6374188142102 233.11061267741022 1.1286063573567871e-05
  endloop
endfacet
facet normal 1.351415223856977e-07 -1.0979998222924557e-07 -0.9999999999999849
  outer loop
    vertex 1287.5929235413955 226.97185701352572 8.663115019391653e-06
    vertex 1276.6374188142102 233.11061267741022 1.1286063573567871e-05
    vertex 1278.1086358179625 232.91692328437318 1.1286063573567871e-05
  endloop
endfacet
facet normal 1.351415223856977e-07 -1.0979998222924557e-07 -0.9999999999999849
  outer loop
    vertex 1287.5929235413955 226.97185701352572 8.663115019391653e-06
    vertex 1278.1086358179625 232.91692328437318 1.1286063573567871e-05
    vertex 1279.579852821715 233.11061267741022 1.1286063573567871e-05
  endloop
endfacet
facet normal 1.351415223856977e-07 -1.0979998222924557e-07 -0.9999999999999849
  outer loop
    vertex 1287.5929235413955 226.97185701352572 8.663115019391653e-06
    vertex 1279.579852821715 233.11061267741022 1.1286063573567871e-05
    vertex 1287.262809382244 227.22775623456354 8.663115019391653e-06
  endloop
endfacet
facet normal 1.351415223856977e-07 -1.0979998222924557e-07 -0.9999999999999849
  outer loop
    vertex 1287.262809382244 227.22775623456354 8.663115019391653e-06
    vertex 1279.579852821715 233.11061267741022 1.1286063573567871e-05
    vertex 1280.9508088179625 233.67848124447272 1.1286063573567871e-05
  endloop
endfacet
facet normal 1.351415223856977e-07 -1.0979998222924557e-07 -0.9999999999999849
  outer loop
    vertex 1287.262809382244 227.22775623456354 8.663115019391653e-06
    vertex 1280.9508088179625 233.67848124447272 1.1286063573567871e-05
    vertex 1287.0101751823277 227.5603757325376 8.663115019391653e-06
  endloop
endfacet
facet normal 1.351415223856977e-07 -1.0979998222924557e-07 -0.9999999999999849
  outer loop
    vertex 1287.0101751823277 227.5603757325376 8.663115019391653e-06
    vertex 1280.9508088179625 233.67848124447272 1.1286063573567871e-05
    vertex 1282.1280754211732 234.58182968116256 1.128606355100814e-05
  endloop
endfacet
facet normal 1.351415223856977e-07 -1.0979998222924557e-07 -0.9999999999999849
  outer loop
    vertex 1287.0101751823277 227.5603757325376 8.663115019391653e-06
    vertex 1282.1280754211732 234.58182968116256 1.128606355100814e-05
    vertex 1283.031423857863 235.75909628437321 1.128606355100814e-05
  endloop
endfacet
facet normal 1.351415223856977e-07 -1.0979998222924557e-07 -0.9999999999999849
  outer loop
    vertex 1287.0101751823277 227.5603757325376 8.663115019391653e-06
    vertex 1283.031423857863 235.75909628437321 1.128606355100814e-05
    vertex 1286.8522375448724 227.94704803834063 8.663115008111788e-06
  endloop
endfacet
facet normal 1.351415223856977e-07 -1.0979998222924557e-07 -0.9999999999999849
  outer loop
    vertex 1286.8522375448724 227.94704803834063 8.663115008111788e-06
    vertex 1283.031423857863 235.75909628437321 1.128606355100814e-05
    vertex 1283.5992924249256 237.13005228062087 1.128606355100814e-05
  endloop
endfacet
facet normal 1.351415223856977e-07 -1.0979998222924557e-07 -0.9999999999999849
  outer loop
    vertex 1286.8522375448724 227.94704803834063 8.663115008111788e-06
    vertex 1283.5992924249256 237.13005228062087 1.128606355100814e-05
    vertex 1283.7929818179625 238.6012692843732 1.128606355100814e-05
  endloop
endfacet
facet normal 1.351415223856977e-07 -1.0979998222924557e-07 -0.9999999999999849
  outer loop
    vertex 1286.8522375448724 227.94704803834063 8.663115008111788e-06
    vertex 1283.7929818179625 238.6012692843732 1.128606355100814e-05
    vertex 1286.7997596588668 228.36142207333845 8.663115008111788e-06
  endloop
endfacet
facet normal 1.351415223856977e-07 -1.0979998222924557e-07 -0.9999999999999849
  outer loop
    vertex 1292.2766211189269 224.49258133037554 1.1711195505270666e-05
    vertex 1287.5929235413955 226.97185701352572 8.663115019391653e-06
    vertex 1287.978020925375 226.81011717844444 8.663115019391653e-06
  endloop
endfacet
facet normal 1.351415223856977e-07 -1.0979998222924557e-07 -0.9999999999999849
  outer loop
    vertex 1292.2766211189269 224.49258133037554 1.1711195505270666e-05
    vertex 1287.978020925375 226.81011717844444 8.663115019391653e-06
    vertex 1288.3918577838679 226.75355903179275 8.663115019391653e-06
  endloop
endfacet
facet normal 1.351415223856977e-07 -1.0979998222924557e-07 -0.9999999999999849
  outer loop
    vertex 1292.2766211189269 224.49258133037554 1.1711195505270666e-05
    vertex 1288.3918577838679 226.75355903179275 8.663115019391653e-06
    vertex 1288.8062318188656 226.80603691779822 8.663115019391653e-06
  endloop
endfacet
facet normal 1.351415223856977e-07 -1.0979998222924557e-07 -0.9999999999999849
  outer loop
    vertex 1292.2766211189269 224.49258133037554 1.1711195505270666e-05
    vertex 1288.8062318188656 226.80603691779822 8.663115019391653e-06
    vertex 1289.1929041246688 226.96397455525332 8.663115019391653e-06
  endloop
endfacet
facet normal 1.351415223856977e-07 -1.0979998222924557e-07 -0.9999999999999849
  outer loop
    vertex 1292.2766211189269 224.49258133037554 1.1711195505270666e-05
    vertex 1289.1929041246688 226.96397455525332 8.663115019391653e-06
    vertex 1289.5255236226428 227.21660875516986 8.663115019391653e-06
  endloop
endfacet
facet normal 1.351415223856977e-07 -1.0979998222924557e-07 -0.9999999999999849
  outer loop
    vertex 1292.2766211189269 224.49258133037554 1.1711195505270666e-05
    vertex 1289.5255236226428 227.21660875516986 8.663115019391653e-06
    vertex 1289.7814228436805 227.5467229143212 8.663115008111788e-06
  endloop
endfacet
facet normal 1.351415223856977e-07 -1.0979998222924557e-07 -0.9999999999999849
  outer loop
    vertex 1292.2766211189269 224.49258133037554 1.1711195505270666e-05
    vertex 1289.7814228436805 227.5467229143212 8.663115008111788e-06
    vertex 1289.9431626787618 227.9318202983007 8.663115008111788e-06
  endloop
endfacet
facet normal 1.351415223856977e-07 -1.0979998222924557e-07 -0.9999999999999849
  outer loop
    vertex 1292.2766211189269 224.49258133037554 1.1711195505270666e-05
    vertex 1289.9431626787618 227.9318202983007 8.663115008111788e-06
    vertex 1289.9997208254138 228.34565715679364 8.663115008111788e-06
  endloop
endfacet
facet normal 0.793353340291259 -0.6087614290086896 5.427420522086075e-09
  outer loop
    vertex 1273.1858477780622 241.44344228437316 1.128606355100814e-05
    vertex 1274.089196342182 242.62070881231156 4.000011711195503
    vertex 1273.1858479054922 241.4434422091009 4.000011711195503
  endloop
endfacet
facet normal 0.793353340291259 -0.6087614290086896 5.427420522086075e-09
  outer loop
    vertex 1274.089196342182 242.62070881231156 4.000011711195503
    vertex 1273.1858477780622 241.44344228437316 1.128606355100814e-05
    vertex 1274.0891962147518 242.62070888758382 1.128606355100814e-05
  endloop
endfacet
facet normal 0.923879532511255 -0.3826834323651663 4.067542791133111e-09
  outer loop
    vertex 1272.6179792109995 240.0724862881255 1.128606355100814e-05
    vertex 1273.1858479054922 241.4434422091009 4.000011711195503
    vertex 1272.6179793384294 240.07248621285325 4.000011711195503
  endloop
endfacet
facet normal 0.923879532511255 -0.3826834323651663 4.067542791133111e-09
  outer loop
    vertex 1273.1858479054922 241.4434422091009 4.000011711195503
    vertex 1272.6179792109995 240.0724862881255 1.128606355100814e-05
    vertex 1273.1858477780622 241.44344228437316 1.128606355100814e-05
  endloop
endfacet
facet normal 0.9914448613738112 -0.13052619222004613 2.430468740895572e-09
  outer loop
    vertex 1272.4242898179625 238.6012692843732 1.128606355100814e-05
    vertex 1272.6179793384294 240.07248621285325 4.000011711195503
    vertex 1272.4242899453925 238.60126920910093 4.000011711195503
  endloop
endfacet
facet normal 0.9914448613738112 -0.13052619222004613 2.430468740895572e-09
  outer loop
    vertex 1272.6179793384294 240.07248621285325 4.000011711195503
    vertex 1272.4242898179625 238.6012692843732 1.128606355100814e-05
    vertex 1272.6179792109995 240.0724862881255 1.128606355100814e-05
  endloop
endfacet
facet normal 0.9914448613738117 0.1305261922200422 6.277622625061187e-10
  outer loop
    vertex 1272.6179792109995 237.13005228062084 1.1286063573567871e-05
    vertex 1272.4242899453925 238.60126920910093 4.000011711195503
    vertex 1272.6179793384294 237.13005220534856 4.000011711195509
  endloop
endfacet
facet normal 0.9914448613738117 0.1305261922200422 6.277622625061187e-10
  outer loop
    vertex 1272.4242899453925 238.60126920910093 4.000011711195503
    vertex 1272.6179792109995 237.13005228062084 1.1286063573567871e-05
    vertex 1272.4242898179625 238.6012692843732 1.128606355100814e-05
  endloop
endfacet
facet normal 0.923879532511255 0.3826834323651663 -1.217725176647679e-09
  outer loop
    vertex 1273.1858477780622 235.75909628437316 1.1286063573567871e-05
    vertex 1272.6179793384294 237.13005220534856 4.000011711195509
    vertex 1273.1858479054922 235.7590962091009 4.000011711195509
  endloop
endfacet
facet normal 0.923879532511255 0.3826834323651663 -1.217725176647679e-09
  outer loop
    vertex 1272.6179793384294 237.13005220534856 4.000011711195509
    vertex 1273.1858477780622 235.75909628437316 1.1286063573567871e-05
    vertex 1272.6179792109995 237.13005228062084 1.1286063573567871e-05
  endloop
endfacet
facet normal 0.7933533402912477 0.6087614290087042 -2.9802266573976263e-09
  outer loop
    vertex 1274.0891962147518 234.58182968116256 1.1286063573567871e-05
    vertex 1273.1858479054922 235.7590962091009 4.000011711195509
    vertex 1274.089196342182 234.5818296058903 4.000011711195509
  endloop
endfacet
facet normal 0.7933533402912477 0.6087614290087042 -2.9802266573976263e-09
  outer loop
    vertex 1273.1858479054922 235.7590962091009 4.000011711195509
    vertex 1274.0891962147518 234.58182968116256 1.1286063573567871e-05
    vertex 1273.1858477780622 235.75909628437316 1.1286063573567871e-05
  endloop
endfacet
facet normal 0.6087614290087132 0.793353340291241 -4.539630616504227e-09
  outer loop
    vertex 1274.089196342182 234.5818296058903 4.000011711195509
    vertex 1275.2664628179625 233.67848124447272 1.1286063573567871e-05
    vertex 1274.0891962147518 234.58182968116256 1.1286063573567871e-05
  endloop
endfacet
facet normal 0.6087614290087132 0.793353340291241 -4.539630616504227e-09
  outer loop
    vertex 1275.2664628179625 233.67848124447272 1.1286063573567871e-05
    vertex 1274.089196342182 234.5818296058903 4.000011711195509
    vertex 1275.2664629453927 233.67848116920047 4.000011711195509
  endloop
endfacet
facet normal 0.38268343236512076 0.9238795325112741 -5.789666251190002e-09
  outer loop
    vertex 1275.2664629453927 233.67848116920047 4.000011711195509
    vertex 1276.6374188142102 233.11061267741022 1.1286063573567871e-05
    vertex 1275.2664628179625 233.67848124447272 1.1286063573567871e-05
  endloop
endfacet
facet normal 0.38268343236512076 0.9238795325112741 -5.789666251190002e-09
  outer loop
    vertex 1276.6374188142102 233.11061267741022 1.1286063573567871e-05
    vertex 1275.2664629453927 233.67848116920047 4.000011711195509
    vertex 1276.6374189416401 233.11061260213796 4.000011711195509
  endloop
endfacet
facet normal 0.13052619222003828 0.9914448613738123 -6.645145698733388e-09
  outer loop
    vertex 1276.6374189416401 233.11061260213796 4.000011711195509
    vertex 1278.1086358179625 232.91692328437318 1.1286063573567871e-05
    vertex 1276.6374188142102 233.11061267741022 1.1286063573567871e-05
  endloop
endfacet
facet normal 0.13052619222003828 0.9914448613738123 -6.645145698733388e-09
  outer loop
    vertex 1278.1086358179625 232.91692328437318 1.1286063573567871e-05
    vertex 1276.6374189416401 233.11061260213796 4.000011711195509
    vertex 1278.1086359453925 232.91692320910093 4.000011711195509
  endloop
endfacet
facet normal -0.13052619222003828 0.9914448613738123 -7.047769448530384e-09
  outer loop
    vertex 1278.1086359453925 232.91692320910093 4.000011711195509
    vertex 1279.579852821715 233.11061267741022 1.1286063573567871e-05
    vertex 1278.1086358179625 232.91692328437318 1.1286063573567871e-05
  endloop
endfacet
facet normal -0.13052619222003828 0.9914448613738123 -7.047769448530384e-09
  outer loop
    vertex 1279.579852821715 233.11061267741022 1.1286063573567871e-05
    vertex 1278.1086359453925 232.91692320910093 4.000011711195509
    vertex 1279.5798529491449 233.11061260213796 4.000011711195509
  endloop
endfacet
facet normal -0.38268343236512076 0.9238795325112741 -6.9700993573997435e-09
  outer loop
    vertex 1279.5798529491449 233.11061260213796 4.000011711195509
    vertex 1280.9508088179625 233.67848124447272 1.1286063573567871e-05
    vertex 1279.579852821715 233.11061267741022 1.1286063573567871e-05
  endloop
endfacet
facet normal -0.38268343236512076 0.9238795325112741 -6.9700993573997435e-09
  outer loop
    vertex 1280.9508088179625 233.67848124447272 1.1286063573567871e-05
    vertex 1279.5798529491449 233.11061260213796 4.000011711195509
    vertex 1280.9508089453925 233.67848116920047 4.000011711195509
  endloop
endfacet
facet normal -0.6087614290087132 0.793353340291241 -6.417428513696218e-09
  outer loop
    vertex 1280.9508088179625 233.67848124447272 1.1286063573567871e-05
    vertex 1282.1280755486032 234.5818296058903 4.000011711195503
    vertex 1282.1280754211732 234.58182968116256 1.128606355100814e-05
  endloop
endfacet
facet normal -0.6087614290087132 0.793353340291241 -6.417428513696218e-09
  outer loop
    vertex 1282.1280755486032 234.5818296058903 4.000011711195503
    vertex 1280.9508088179625 233.67848124447272 1.1286063573567871e-05
    vertex 1280.9508089453925 233.67848116920047 4.000011711195509
  endloop
endfacet
facet normal -0.793353340291259 0.6087614290086896 -5.427420522086075e-09
  outer loop
    vertex 1283.031423985293 235.75909620910096 4.000011711195503
    vertex 1282.1280754211732 234.58182968116256 1.128606355100814e-05
    vertex 1282.1280755486032 234.5818296058903 4.000011711195503
  endloop
endfacet
facet normal -0.793353340291259 0.6087614290086896 -5.427420522086075e-09
  outer loop
    vertex 1282.1280754211732 234.58182968116256 1.128606355100814e-05
    vertex 1283.031423985293 235.75909620910096 4.000011711195503
    vertex 1283.031423857863 235.75909628437321 1.128606355100814e-05
  endloop
endfacet
facet normal -0.923879532511255 0.3826834323651663 -4.067542791133111e-09
  outer loop
    vertex 1283.5992925523556 237.13005220534862 4.000011711195503
    vertex 1283.031423857863 235.75909628437321 1.128606355100814e-05
    vertex 1283.031423985293 235.75909620910096 4.000011711195503
  endloop
endfacet
facet normal -0.923879532511255 0.3826834323651663 -4.067542791133111e-09
  outer loop
    vertex 1283.031423857863 235.75909628437321 1.128606355100814e-05
    vertex 1283.5992925523556 237.13005220534862 4.000011711195503
    vertex 1283.5992924249256 237.13005228062087 1.128606355100814e-05
  endloop
endfacet
facet normal -0.9914448613738112 0.13052619222004613 -2.430468740895572e-09
  outer loop
    vertex 1283.7929819453925 238.60126920910093 4.000011711195503
    vertex 1283.5992924249256 237.13005228062087 1.128606355100814e-05
    vertex 1283.5992925523556 237.13005220534862 4.000011711195503
  endloop
endfacet
facet normal -0.9914448613738112 0.13052619222004613 -2.430468740895572e-09
  outer loop
    vertex 1283.5992924249256 237.13005228062087 1.128606355100814e-05
    vertex 1283.7929819453925 238.60126920910093 4.000011711195503
    vertex 1283.7929818179625 238.6012692843732 1.128606355100814e-05
  endloop
endfacet
facet normal -0.9914448613738117 -0.1305261922200422 -6.277622625061187e-10
  outer loop
    vertex 1283.5992925523556 240.07248621285328 4.000011711195498
    vertex 1283.7929818179625 238.6012692843732 1.128606355100814e-05
    vertex 1283.7929819453925 238.60126920910093 4.000011711195503
  endloop
endfacet
facet normal -0.9914448613738117 -0.1305261922200422 -6.277622625061187e-10
  outer loop
    vertex 1283.7929818179625 238.6012692843732 1.128606355100814e-05
    vertex 1283.5992925523556 240.07248621285328 4.000011711195498
    vertex 1283.5992924249256 240.07248628812556 1.128606355100814e-05
  endloop
endfacet
facet normal -0.923879532511255 -0.3826834323651663 1.217725176647679e-09
  outer loop
    vertex 1283.031423985293 241.44344220910097 4.000011711195498
    vertex 1283.5992924249256 240.07248628812556 1.128606355100814e-05
    vertex 1283.5992925523556 240.07248621285328 4.000011711195498
  endloop
endfacet
facet normal -0.923879532511255 -0.3826834323651663 1.217725176647679e-09
  outer loop
    vertex 1283.5992924249256 240.07248628812556 1.128606355100814e-05
    vertex 1283.031423985293 241.44344220910097 4.000011711195498
    vertex 1283.031423857863 241.44344228437322 1.128606355100814e-05
  endloop
endfacet
facet normal -0.7933533402912477 -0.6087614290087042 2.9802266573976263e-09
  outer loop
    vertex 1282.1280755486032 242.62070881231156 4.000011711195498
    vertex 1283.031423857863 241.44344228437322 1.128606355100814e-05
    vertex 1283.031423985293 241.44344220910097 4.000011711195498
  endloop
endfacet
facet normal -0.7933533402912477 -0.6087614290087042 2.9802266573976263e-09
  outer loop
    vertex 1283.031423857863 241.44344228437322 1.128606355100814e-05
    vertex 1282.1280755486032 242.62070881231156 4.000011711195498
    vertex 1282.1280754211732 242.62070888758382 1.128606355100814e-05
  endloop
endfacet
facet normal 1.0 1.8400431678375813e-23 1.534332323405051e-08
  outer loop
    vertex 1292.2766211189273 243.65325392206893 1.132345213301633e-05
    vertex 1292.276621192695 224.4925815342526 3.0000117111955054
    vertex 1292.2766211189269 224.49258133037554 1.1711195505270666e-05
  endloop
endfacet
facet normal 1.0 1.8400431678375813e-23 1.534332323405051e-08
  outer loop
    vertex 1292.276621192695 224.4925815342526 3.0000117111955054
    vertex 1292.2766211189273 243.65325392206893 1.132345213301633e-05
    vertex 1292.2766201830698 243.6532533257634 3.0000064143764122
  endloop
endfacet
facet normal 0.0 -0.999999999999997 7.841925721186082e-08
  outer loop
    vertex 1292.2766211189269 224.49258133037554 1.1711195505270666e-05
    vertex 1273.0369308421512 224.4925816529847 3.0000107000294585
    vertex 1273.0369299128204 224.4925813303753 1.1367918672977595e-05
  endloop
endfacet
facet normal 0.0 -0.999999999999997 7.841925721186082e-08
  outer loop
    vertex 1273.0369308421512 224.4925816529847 3.0000107000294585
    vertex 1292.2766211189269 224.49258133037554 1.1711195505270666e-05
    vertex 1292.276621192695 224.4925815342526 3.0000117111955054
  endloop
endfacet
facet normal 0.9999999999999956 -8.364967126903101e-08 -4.2918941086064476e-08
  outer loop
    vertex 1274.0891962147518 242.62070888758382 1.128606355100814e-05
    vertex 1274.0891963421823 244.02009669346074 4.000011218506402
    vertex 1274.089196342182 242.62070881231156 4.000011711195503
  endloop
endfacet
facet normal 0.9999999999999956 -8.364967126903101e-08 -4.2918941086064476e-08
  outer loop
    vertex 1274.0891963421823 244.02009669346074 4.000011218506402
    vertex 1274.0891962147518 242.62070888758382 1.128606355100814e-05
    vertex 1274.089196343725 244.68246179490893 3.000010985304397
  endloop
endfacet
facet normal 0.9999999999999956 -8.364967126903101e-08 -4.2918941086064476e-08
  outer loop
    vertex 1274.089196343725 244.68246179490893 3.000010985304397
    vertex 1274.0891962147518 242.62070888758382 1.128606355100814e-05
    vertex 1274.0891962451476 248.69607777454968 7.796173332774714e-06
  endloop
endfacet
facet normal 0.9999999999999956 -8.364967126903101e-08 -4.2918941086064476e-08
  outer loop
    vertex 1274.089196343725 244.68246179490893 3.000010985304397
    vertex 1274.0891962451476 248.69607777454968 7.796173332774714e-06
    vertex 1274.0891971744784 248.69607809715916 3.0000071282841185
  endloop
endfacet
facet normal -1.5423101790875065e-09 6.905535386148435e-09 1.0
  outer loop
    vertex 1271.5363462233352 236.8402294856523 4.000011711195509
    vertex 1271.5363462233352 240.36230893254955 4.000011711195503
    vertex 1271.3045009453926 238.60126920910093 4.000011711195509
  endloop
endfacet
facet normal -1.5423101790875065e-09 6.905535386148435e-09 1.0
  outer loop
    vertex 1271.5363462233352 240.36230893254955 4.000011711195503
    vertex 1271.5363462233352 236.8402294856523 4.000011711195509
    vertex 1272.2160821846137 235.19920170910092 4.000011711195509
  endloop
endfacet
facet normal -1.5423101790875065e-09 6.905535386148435e-09 1.0
  outer loop
    vertex 1271.5363462233352 240.36230893254955 4.000011711195503
    vertex 1272.2160821846137 235.19920170910092 4.000011711195509
    vertex 1272.2160821846137 242.0033367091009 4.000011711195503
  endloop
endfacet
facet normal -1.5423101790875065e-09 6.905535386148435e-09 1.0
  outer loop
    vertex 1272.2160821846137 242.0033367091009 4.000011711195503
    vertex 1272.2160821846137 235.19920170910092 4.000011711195509
    vertex 1272.4242899453925 238.60126920910093 4.000011711195503
  endloop
endfacet
facet normal -1.5423101790875065e-09 6.905535386148435e-09 1.0
  outer loop
    vertex 1272.4242899453925 238.60126920910093 4.000011711195503
    vertex 1272.2160821846137 235.19920170910092 4.000011711195509
    vertex 1272.6179793384294 237.13005220534856 4.000011711195509
  endloop
endfacet
facet normal -1.5423101790875065e-09 6.905535386148435e-09 1.0
  outer loop
    vertex 1272.6179793384294 237.13005220534856 4.000011711195509
    vertex 1272.2160821846137 235.19920170910092 4.000011711195509
    vertex 1273.2973859467838 233.7900192104922 4.000011711195509
  endloop
endfacet
facet normal -1.5423101790875065e-09 6.905535386148435e-09 1.0
  outer loop
    vertex 1272.6179793384294 237.13005220534856 4.000011711195509
    vertex 1273.2973859467838 233.7900192104922 4.000011711195509
    vertex 1273.1858479054922 235.7590962091009 4.000011711195509
  endloop
endfacet
facet normal -1.5423101790875065e-09 6.905535386148435e-09 1.0
  outer loop
    vertex 1273.1858479054922 235.7590962091009 4.000011711195509
    vertex 1273.2973859467838 233.7900192104922 4.000011711195509
    vertex 1274.089196342182 234.5818296058903 4.000011711195509
  endloop
endfacet
facet normal -1.5423101790875065e-09 6.905535386148435e-09 1.0
  outer loop
    vertex 1274.089196342182 234.5818296058903 4.000011711195509
    vertex 1273.2973859467838 233.7900192104922 4.000011711195509
    vertex 1274.7065684453926 232.70871544832212 4.000011711195509
  endloop
endfacet
facet normal -1.5423101790875065e-09 6.905535386148435e-09 1.0
  outer loop
    vertex 1274.089196342182 234.5818296058903 4.000011711195509
    vertex 1274.7065684453926 232.70871544832212 4.000011711195509
    vertex 1275.2664629453927 233.67848116920047 4.000011711195509
  endloop
endfacet
facet normal -1.5423101790875065e-09 6.905535386148435e-09 1.0
  outer loop
    vertex 1275.2664629453927 233.67848116920047 4.000011711195509
    vertex 1274.7065684453926 232.70871544832212 4.000011711195509
    vertex 1276.347596221944 232.02897948704356 4.000011711195509
  endloop
endfacet
facet normal -1.5423101790875065e-09 6.905535386148435e-09 1.0
  outer loop
    vertex 1275.2664629453927 233.67848116920047 4.000011711195509
    vertex 1276.347596221944 232.02897948704356 4.000011711195509
    vertex 1276.6374189416401 233.11061260213796 4.000011711195509
  endloop
endfacet
facet normal -1.5423101790875065e-09 6.905535386148435e-09 1.0
  outer loop
    vertex 1276.6374189416401 233.11061260213796 4.000011711195509
    vertex 1276.347596221944 232.02897948704356 4.000011711195509
    vertex 1278.1086359453925 231.79713420910093 4.000011711195509
  endloop
endfacet
facet normal -1.5423101790875065e-09 6.905535386148435e-09 1.0
  outer loop
    vertex 1276.6374189416401 233.11061260213796 4.000011711195509
    vertex 1278.1086359453925 231.79713420910093 4.000011711195509
    vertex 1278.1086359453925 232.91692320910093 4.000011711195509
  endloop
endfacet
facet normal -1.5423101790875065e-09 6.905535386148435e-09 1.0
  outer loop
    vertex 1278.1086359453925 232.91692320910093 4.000011711195509
    vertex 1278.1086359453925 231.79713420910093 4.000011711195509
    vertex 1279.8696756688412 232.02897948704356 4.000011711195509
  endloop
endfacet
facet normal -1.5423101790875065e-09 6.905535386148435e-09 1.0
  outer loop
    vertex 1278.1086359453925 232.91692320910093 4.000011711195509
    vertex 1279.8696756688412 232.02897948704356 4.000011711195509
    vertex 1279.5798529491449 233.11061260213796 4.000011711195509
  endloop
endfacet
facet normal -1.5423101790875065e-09 6.905535386148435e-09 1.0
  outer loop
    vertex 1279.5798529491449 233.11061260213796 4.000011711195509
    vertex 1279.8696756688412 232.02897948704356 4.000011711195509
    vertex 1280.9508089453925 233.67848116920047 4.000011711195509
  endloop
endfacet
facet normal -1.5423101790875065e-09 6.905535386148435e-09 1.0
  outer loop
    vertex 1280.9508089453925 233.67848116920047 4.000011711195509
    vertex 1279.8696756688412 232.02897948704356 4.000011711195509
    vertex 1281.5107034453927 232.70871544832212 4.000011711195509
  endloop
endfacet
facet normal -1.5423101790875065e-09 6.905535386148435e-09 1.0
  outer loop
    vertex 1280.9508089453925 233.67848116920047 4.000011711195509
    vertex 1281.5107034453927 232.70871544832212 4.000011711195509
    vertex 1282.1280755486032 234.5818296058903 4.000011711195503
  endloop
endfacet
facet normal -1.5423101790875065e-09 6.905535386148435e-09 1.0
  outer loop
    vertex 1282.1280755486032 234.5818296058903 4.000011711195503
    vertex 1281.5107034453927 232.70871544832212 4.000011711195509
    vertex 1282.9198859440012 233.7900192104922 4.000011711195503
  endloop
endfacet
facet normal -1.5423101790875065e-09 6.905535386148435e-09 1.0
  outer loop
    vertex 1282.1280755486032 234.5818296058903 4.000011711195503
    vertex 1282.9198859440012 233.7900192104922 4.000011711195503
    vertex 1283.031423985293 235.75909620910096 4.000011711195503
  endloop
endfacet
facet normal -1.5423101790875065e-09 6.905535386148435e-09 1.0
  outer loop
    vertex 1283.031423985293 235.75909620910096 4.000011711195503
    vertex 1282.9198859440012 233.7900192104922 4.000011711195503
    vertex 1284.0011897061713 235.19920170910095 4.000011711195503
  endloop
endfacet
facet normal -1.5423101790875065e-09 6.905535386148435e-09 1.0
  outer loop
    vertex 1283.031423985293 235.75909620910096 4.000011711195503
    vertex 1284.0011897061713 235.19920170910095 4.000011711195503
    vertex 1283.5992925523556 237.13005220534862 4.000011711195503
  endloop
endfacet
facet normal -1.5423101790875065e-09 6.905535386148435e-09 1.0
  outer loop
    vertex 1283.5992925523556 237.13005220534862 4.000011711195503
    vertex 1284.0011897061713 235.19920170910095 4.000011711195503
    vertex 1283.7929819453925 238.60126920910093 4.000011711195503
  endloop
endfacet
facet normal -1.5423101790875065e-09 6.905535386148435e-09 1.0
  outer loop
    vertex 1283.031423985293 241.44344220910097 4.000011711195498
    vertex 1282.1280755486034 244.02009669346077 4.000011573737326
    vertex 1282.1280755486032 242.62070881231156 4.000011711195498
  endloop
endfacet
facet normal -1.5423101790875065e-09 6.905535386148435e-09 1.0
  outer loop
    vertex 1282.1280755486034 244.02009669346077 4.000011573737326
    vertex 1283.031423985293 241.44344220910097 4.000011711195498
    vertex 1282.9198859440012 243.41251920770966 4.000011711195498
  endloop
endfacet
facet normal -1.5423101790875065e-09 6.905535386148435e-09 1.0
  outer loop
    vertex 1282.9198859440012 243.41251920770966 4.000011711195498
    vertex 1283.031423985293 241.44344220910097 4.000011711195498
    vertex 1284.0011897061713 242.00333670910095 4.000011711195498
  endloop
endfacet
facet normal -1.5423101790875065e-09 6.905535386148435e-09 1.0
  outer loop
    vertex 1284.0011897061713 242.00333670910095 4.000011711195498
    vertex 1283.031423985293 241.44344220910097 4.000011711195498
    vertex 1283.5992925523556 240.07248621285328 4.000011711195498
  endloop
endfacet
facet normal -1.5423101790875065e-09 6.905535386148435e-09 1.0
  outer loop
    vertex 1284.0011897061713 242.00333670910095 4.000011711195498
    vertex 1283.5992925523556 240.07248621285328 4.000011711195498
    vertex 1283.7929819453925 238.60126920910093 4.000011711195503
  endloop
endfacet
facet normal -1.5423101790875065e-09 6.905535386148435e-09 1.0
  outer loop
    vertex 1284.0011897061713 242.00333670910095 4.000011711195498
    vertex 1283.7929819453925 238.60126920910093 4.000011711195503
    vertex 1284.0011897061713 235.19920170910095 4.000011711195503
  endloop
endfacet
facet normal -1.5423101790875065e-09 6.905535386148435e-09 1.0
  outer loop
    vertex 1284.0011897061713 242.00333670910095 4.000011711195498
    vertex 1284.0011897061713 235.19920170910095 4.000011711195503
    vertex 1284.68092566745 236.8402294856523 4.000011711195503
  endloop
endfacet
facet normal -1.5423101790875065e-09 6.905535386148435e-09 1.0
  outer loop
    vertex 1284.0011897061713 242.00333670910095 4.000011711195498
    vertex 1284.68092566745 236.8402294856523 4.000011711195503
    vertex 1284.68092566745 240.36230893254955 4.000011711195498
  endloop
endfacet
facet normal -1.5423101790875065e-09 6.905535386148435e-09 1.0
  outer loop
    vertex 1284.68092566745 240.36230893254955 4.000011711195498
    vertex 1284.68092566745 236.8402294856523 4.000011711195503
    vertex 1284.9127709453926 238.60126920910093 4.000011711195498
  endloop
endfacet
facet normal -1.5423101790875065e-09 6.905535386148435e-09 1.0
  outer loop
    vertex 1272.2160821846137 242.0033367091009 4.000011711195503
    vertex 1272.6179793384294 240.07248621285325 4.000011711195503
    vertex 1273.2973859467838 243.41251920770966 4.000011711195503
  endloop
endfacet
facet normal -1.5423101790875065e-09 6.905535386148435e-09 1.0
  outer loop
    vertex 1272.6179793384294 240.07248621285325 4.000011711195503
    vertex 1272.2160821846137 242.0033367091009 4.000011711195503
    vertex 1272.4242899453925 238.60126920910093 4.000011711195503
  endloop
endfacet
facet normal -1.5423101790875065e-09 6.905535386148435e-09 1.0
  outer loop
    vertex 1273.2973859467838 243.41251920770966 4.000011711195503
    vertex 1272.6179793384294 240.07248621285325 4.000011711195503
    vertex 1273.1858479054922 241.4434422091009 4.000011711195503
  endloop
endfacet
facet normal -1.5423101790875065e-09 6.905535386148435e-09 1.0
  outer loop
    vertex 1273.2973859467838 243.41251920770966 4.000011711195503
    vertex 1273.1858479054922 241.4434422091009 4.000011711195503
    vertex 1274.089196342182 242.62070881231156 4.000011711195503
  endloop
endfacet
facet normal -1.5423101790875065e-09 6.905535386148435e-09 1.0
  outer loop
    vertex 1273.2973859467838 243.41251920770966 4.000011711195503
    vertex 1274.089196342182 242.62070881231156 4.000011711195503
    vertex 1274.0891963421823 244.02009669346074 4.000011218506402
  endloop
endfacet
facet normal -0.9999999999999938 -9.581277741916344e-08 -5.67867459938948e-08
  outer loop
    vertex 1282.1280755486034 244.02009669346077 4.000011573737326
    vertex 1282.1280754211732 242.62070888758382 1.128606355100814e-05
    vertex 1282.1280755486032 242.62070881231156 4.000011711195498
  endloop
endfacet
facet normal -0.9999999999999938 -9.581277741916344e-08 -5.67867459938948e-08
  outer loop
    vertex 1282.1280754211732 242.62070888758382 1.128606355100814e-05
    vertex 1282.1280755486034 244.02009669346077 4.000011573737326
    vertex 1282.1280755501457 244.68246179490905 3.0000115086749597
  endloop
endfacet
facet normal -0.9999999999999938 -9.581277741916344e-08 -5.67867459938948e-08
  outer loop
    vertex 1282.1280754211732 242.62070888758382 1.128606355100814e-05
    vertex 1282.1280755501457 244.68246179490905 3.0000115086749597
    vertex 1282.128075451595 248.70072887326097 8.482157657407895e-06
  endloop
endfacet
facet normal -0.9999999999999938 -9.581277741916344e-08 -5.67867459938948e-08
  outer loop
    vertex 1282.128075451595 248.70072887326097 8.482157657407895e-06
    vertex 1282.1280755501457 244.68246179490905 3.0000115086749597
    vertex 1282.1280745157374 248.70072827695557 3.000003573081937
  endloop
endfacet
facet normal -0.7022918267894993 -0.5388874721326623 0.46517360458557516
  outer loop
    vertex 1273.2973859467838 233.7900192104922 4.000011711195509
    vertex 1271.7570679375406 234.93418970219537 3.000011711195511
    vertex 1272.9226023837346 233.41523563899506 3.000011711195511
  endloop
endfacet
facet normal -0.7022918267894993 -0.5388874721326623 0.46517360458557516
  outer loop
    vertex 1271.7570679375406 234.93418970219537 3.000011711195511
    vertex 1273.2973859467838 233.7900192104922 4.000011711195509
    vertex 1272.2160821846137 235.19920170910092 4.000011711195509
  endloop
endfacet
facet normal -0.5388874717866207 -0.7022918263385498 0.4651736056672694
  outer loop
    vertex 1274.7065684453926 232.70871544832212 4.000011711195509
    vertex 1272.9226023837346 233.41523563899506 3.000011711195511
    vertex 1274.4415564469348 232.24970119280113 3.000011711195511
  endloop
endfacet
facet normal -0.5388874717866207 -0.7022918263385498 0.4651736056672694
  outer loop
    vertex 1272.9226023837346 233.41523563899506 3.000011711195511
    vertex 1274.7065684453926 232.70871544832212 4.000011711195509
    vertex 1273.2973859467838 233.7900192104922 4.000011711195509
  endloop
endfacet
facet normal -0.3387588264116819 -0.8178361530966809 0.46517360653438017
  outer loop
    vertex 1276.347596221944 232.02897948704356 4.000011711195509
    vertex 1274.4415564469348 232.24970119280113 3.000011711195511
    vertex 1276.2104159179248 231.51701560998495 3.000011711195511
  endloop
endfacet
facet normal -0.3387588264116819 -0.8178361530966809 0.46517360653438017
  outer loop
    vertex 1274.4415564469348 232.24970119280113 3.000011711195511
    vertex 1276.347596221944 232.02897948704356 4.000011711195509
    vertex 1274.7065684453926 232.70871544832212 4.000011711195509
  endloop
endfacet
facet normal -0.11554432707891116 -0.8776462976117374 0.4651736071278027
  outer loop
    vertex 1278.1086359453925 231.79713420910093 4.000011711195509
    vertex 1276.2104159179248 231.51701560998495 3.000011711195511
    vertex 1278.108635946935 231.26711020219537 3.000011711195511
  endloop
endfacet
facet normal -0.11554432707891116 -0.8776462976117374 0.4651736071278027
  outer loop
    vertex 1276.2104159179248 231.51701560998495 3.000011711195511
    vertex 1278.1086359453925 231.79713420910093 4.000011711195509
    vertex 1276.347596221944 232.02897948704356 4.000011711195509
  endloop
endfacet
facet normal 0.1155443270597541 -0.877646297466225 0.46517360740710045
  outer loop
    vertex 1279.8696756688412 232.02897948704356 4.000011711195509
    vertex 1278.108635946935 231.26711020219537 3.000011711195511
    vertex 1280.006855975945 231.51701560998495 3.000011711195511
  endloop
endfacet
facet normal 0.1155443270597541 -0.877646297466225 0.46517360740710045
  outer loop
    vertex 1278.108635946935 231.26711020219537 3.000011711195511
    vertex 1279.8696756688412 232.02897948704356 4.000011711195509
    vertex 1278.1086359453925 231.79713420910093 4.000011711195509
  endloop
endfacet
facet normal 0.3387588262470134 -0.8178361526991338 0.46517360735323865
  outer loop
    vertex 1281.5107034453927 232.70871544832212 4.000011711195509
    vertex 1280.006855975945 231.51701560998495 3.000011711195511
    vertex 1281.775715446935 232.24970119280113 3.0000117111955054
  endloop
endfacet
facet normal 0.3387588262470134 -0.8178361526991338 0.46517360735323865
  outer loop
    vertex 1280.006855975945 231.51701560998495 3.000011711195511
    vertex 1281.5107034453927 232.70871544832212 4.000011711195509
    vertex 1279.8696756688412 232.02897948704356 4.000011711195509
  endloop
endfacet
facet normal 0.5388874713699172 -0.7022918257954902 0.46517360696988563
  outer loop
    vertex 1282.9198859440012 233.7900192104922 4.000011711195503
    vertex 1281.775715446935 232.24970119280113 3.0000117111955054
    vertex 1283.2946695101355 233.41523563899506 3.0000117111955054
  endloop
endfacet
facet normal 0.5388874713699172 -0.7022918257954902 0.46517360696988563
  outer loop
    vertex 1281.775715446935 232.24970119280113 3.0000117111955054
    vertex 1282.9198859440012 233.7900192104922 4.000011711195503
    vertex 1281.5107034453927 232.70871544832212 4.000011711195509
  endloop
endfacet
facet normal 0.7022918260817783 -0.5388874715895923 0.46517360628317883
  outer loop
    vertex 1284.4602039563292 234.9341897021954 3.0000117111955054
    vertex 1282.9198859440012 233.7900192104922 4.000011711195503
    vertex 1283.2946695101355 233.41523563899506 3.0000117111955054
  endloop
endfacet
facet normal 0.7022918260817783 -0.5388874715895923 0.46517360628317883
  outer loop
    vertex 1282.9198859440012 233.7900192104922 4.000011711195503
    vertex 1284.4602039563292 234.9341897021954 3.0000117111955054
    vertex 1284.0011897061713 235.19920170910095 4.000011711195503
  endloop
endfacet
facet normal 0.8178361536766445 -0.3387588266518836 0.4651736053398032
  outer loop
    vertex 1285.1928895391452 236.70304917318535 3.0000117111955054
    vertex 1284.0011897061713 235.19920170910095 4.000011711195503
    vertex 1284.4602039563292 234.9341897021954 3.0000117111955054
  endloop
endfacet
facet normal 0.8178361536766445 -0.3387588266518836 0.4651736053398032
  outer loop
    vertex 1284.0011897061713 235.19920170910095 4.000011711195503
    vertex 1285.1928895391452 236.70304917318535 3.0000117111955054
    vertex 1284.68092566745 236.8402294856523 4.000011711195503
  endloop
endfacet
facet normal 0.5388874240849973 0.7022918694133445 0.46517359589614093
  outer loop
    vertex 1282.1280755486034 244.02009669346077 4.000011573737326
    vertex 1283.2946695101355 243.78730276539574 3.0000117111954996
    vertex 1282.1280755501457 244.68246179490905 3.0000115086749597
  endloop
endfacet
facet normal 0.5388874240849973 0.7022918694133445 0.46517359589614093
  outer loop
    vertex 1283.2946695101355 243.78730276539574 3.0000117111954996
    vertex 1282.1280755486034 244.02009669346077 4.000011573737326
    vertex 1282.9198859440012 243.41251920770966 4.000011711195498
  endloop
endfacet
facet normal 0.7022918285131793 0.5388874734552884 0.46517360045104794
  outer loop
    vertex 1284.4602039563292 242.26834870219542 3.0000117111954996
    vertex 1282.9198859440012 243.41251920770966 4.000011711195498
    vertex 1284.0011897061713 242.00333670910095 4.000011711195498
  endloop
endfacet
facet normal 0.7022918285131793 0.5388874734552884 0.46517360045104794
  outer loop
    vertex 1282.9198859440012 243.41251920770966 4.000011711195498
    vertex 1284.4602039563292 242.26834870219542 3.0000117111954996
    vertex 1283.2946695101355 243.78730276539574 3.0000117111954996
  endloop
endfacet
facet normal 0.8178361554565626 0.33875882738914076 0.4651736016735724
  outer loop
    vertex 1285.1928895391452 240.49948923120544 3.0000117111954996
    vertex 1284.0011897061713 242.00333670910095 4.000011711195498
    vertex 1284.68092566745 240.36230893254955 4.000011711195498
  endloop
endfacet
facet normal 0.8178361554565626 0.33875882738914076 0.4651736016735724
  outer loop
    vertex 1284.0011897061713 242.00333670910095 4.000011711195498
    vertex 1285.1928895391452 240.49948923120544 3.0000117111954996
    vertex 1284.4602039563292 242.26834870219542 3.0000117111954996
  endloop
endfacet
facet normal -0.7022918292209165 0.5388874739983376 0.465173598753444
  outer loop
    vertex 1273.2973859467838 243.41251920770966 4.000011711195503
    vertex 1271.7570679375406 242.2683487021954 3.0000117111955054
    vertex 1272.2160821846137 242.0033367091009 4.000011711195503
  endloop
endfacet
facet normal -0.7022918292209165 0.5388874739983376 0.465173598753444
  outer loop
    vertex 1271.7570679375406 242.2683487021954 3.0000117111955054
    vertex 1273.2973859467838 243.41251920770966 4.000011711195503
    vertex 1272.9226023837346 243.78730276539574 3.0000117111955054
  endloop
endfacet
facet normal -0.5388872960203381 0.7022919744887864 0.4651735856178103
  outer loop
    vertex 1272.9226023837346 243.78730276539574 3.0000117111955054
    vertex 1274.0891963421823 244.02009669346074 4.000011218506402
    vertex 1274.089196343725 244.68246179490893 3.000010985304397
  endloop
endfacet
facet normal -0.5388872960203381 0.7022919744887864 0.4651735856178103
  outer loop
    vertex 1274.0891963421823 244.02009669346074 4.000011218506402
    vertex 1272.9226023837346 243.78730276539574 3.0000117111955054
    vertex 1273.2973859467838 243.41251920770966 4.000011711195503
  endloop
endfacet
facet normal 0.9920758717798576 0.1256402190074282 -3.293292145404187e-08
  outer loop
    vertex 1286.7997596588668 228.36142207333845 8.663115008111788e-06
    vertex 1286.8522376186406 227.94704824221768 3.0000086631150085
    vertex 1286.8522375448724 227.94704803834063 8.663115008111788e-06
  endloop
endfacet
facet normal 0.9920758717798576 0.1256402190074282 -3.293292145404187e-08
  outer loop
    vertex 1286.8522376186406 227.94704824221768 3.0000086631150085
    vertex 1286.7997596588668 228.36142207333845 8.663115008111788e-06
    vertex 1286.799759732635 228.3614222772155 3.0000086631150085
  endloop
endfacet
facet normal 0.604845557287144 -0.7963427979394319 3.9245888563447796e-08
  outer loop
    vertex 1287.60657643338 229.74310487875582 3.0000086631150027
    vertex 1287.2739568616378 229.49047047496222 8.663114996831922e-06
    vertex 1287.6065763596118 229.74310467487877 8.663114996831922e-06
  endloop
endfacet
facet normal 0.604845557287144 -0.7963427979394319 3.9245888563447796e-08
  outer loop
    vertex 1287.2739568616378 229.49047047496222 8.663114996831922e-06
    vertex 1287.60657643338 229.74310487875582 3.0000086631150027
    vertex 1287.273956935406 229.49047067883924 3.0000086631150027
  endloop
endfacet
facet normal 0.3781272621630188 -0.9257536246805069 5.361538404761411e-08
  outer loop
    vertex 1287.993248739183 229.9010425162109 3.0000086631150027
    vertex 1287.6065763596118 229.74310467487877 8.663114996831922e-06
    vertex 1287.9932486654147 229.90104231233386 8.663114996831922e-06
  endloop
endfacet
facet normal 0.3781272621630188 -0.9257536246805069 5.361538404761411e-08
  outer loop
    vertex 1287.6065763596118 229.74310467487877 8.663114996831922e-06
    vertex 1287.993248739183 229.9010425162109 3.0000086631150027
    vertex 1287.60657643338 229.74310487875582 3.0000086631150027
  endloop
endfacet
facet normal 0.12564021900720193 -0.9920758717798847 6.433107971565012e-08
  outer loop
    vertex 1288.407622774181 229.95352040221636 3.0000086631150027
    vertex 1287.9932486654147 229.90104231233386 8.663114996831922e-06
    vertex 1288.4076227004127 229.95352019833933 8.663114996831922e-06
  endloop
endfacet
facet normal 0.12564021900720193 -0.9920758717798847 6.433107971565012e-08
  outer loop
    vertex 1287.9932486654147 229.90104231233386 8.663114996831922e-06
    vertex 1288.407622774181 229.95352040221636 3.0000086631150027
    vertex 1287.993248739183 229.9010425162109 3.0000086631150027
  endloop
endfacet
facet normal -0.135408997443674 -0.9907897877003449 7.06627186131994e-08
  outer loop
    vertex 1288.8214596326736 229.89696225556466 3.0000086631150027
    vertex 1288.4076227004127 229.95352019833933 8.663114996831922e-06
    vertex 1288.8214595589056 229.89696205168764 8.663114996831922e-06
  endloop
endfacet
facet normal -0.135408997443674 -0.9907897877003449 7.06627186131994e-08
  outer loop
    vertex 1288.4076227004127 229.95352019833933 8.663114996831922e-06
    vertex 1288.8214596326736 229.89696225556466 3.0000086631150027
    vertex 1288.407622774181 229.95352040221636 3.0000086631150027
  endloop
endfacet
facet normal 0.7903446272369105 -0.6126625255373048 2.220185061908698e-08
  outer loop
    vertex 1287.2739568616378 229.49047047496222 8.663114996831922e-06
    vertex 1287.018057714368 229.16035651968792 3.0000086631150085
    vertex 1287.0180576406 229.16035631581087 8.663115008111788e-06
  endloop
endfacet
facet normal 0.7903446272369105 -0.6126625255373048 2.220185061908698e-08
  outer loop
    vertex 1287.018057714368 229.16035651968792 3.0000086631150085
    vertex 1287.2739568616378 229.49047047496222 8.663114996831922e-06
    vertex 1287.273956935406 229.49047067883924 3.0000086631150027
  endloop
endfacet
facet normal -0.612662525537334 -0.7903446272368853 6.877603479446018e-08
  outer loop
    vertex 1289.5366711758047 229.47932319944556 3.0000086631150027
    vertex 1289.206556942885 229.73522221660636 8.663114996831922e-06
    vertex 1289.5366711020365 229.47932299556854 8.663114996831922e-06
  endloop
endfacet
facet normal -0.612662525537334 -0.7903446272368853 6.877603479446018e-08
  outer loop
    vertex 1289.206556942885 229.73522221660636 8.663114996831922e-06
    vertex 1289.5366711758047 229.47932319944556 3.0000086631150027
    vertex 1289.2065570166533 229.73522242048338 3.0000086631150027
  endloop
endfacet
facet normal 0.9219830169466293 -0.3872303144925402 3.6447932575429984e-09
  outer loop
    vertex 1287.0180576406 229.16035631581087 8.663115008111788e-06
    vertex 1286.856317879287 228.7752591357084 3.0000086631150085
    vertex 1286.8563178055188 228.7752589318314 8.663115008111788e-06
  endloop
endfacet
facet normal 0.9219830169466293 -0.3872303144925402 3.6447932575429984e-09
  outer loop
    vertex 1286.856317879287 228.7752591357084 3.0000086631150085
    vertex 1287.0180576406 229.16035631581087 8.663115008111788e-06
    vertex 1287.018057714368 229.16035651968792 3.0000086631150085
  endloop
endfacet
facet normal -0.7963427979394561 -0.6048455572871103 6.068628645733131e-08
  outer loop
    vertex 1289.7893053757211 229.14670370147152 3.0000086631150027
    vertex 1289.5366711020365 229.47932299556854 8.663114996831922e-06
    vertex 1289.789305301953 229.1467034975945 8.663114996831922e-06
  endloop
endfacet
facet normal -0.7963427979394561 -0.6048455572871103 6.068628645733131e-08
  outer loop
    vertex 1289.5366711020365 229.47932299556854 8.663114996831922e-06
    vertex 1289.7893053757211 229.14670370147152 3.0000086631150027
    vertex 1289.5366711758047 229.47932319944556 3.0000086631150027
  endloop
endfacet
facet normal -0.9257536246805003 -0.3781272621630359 4.8460867992260115e-08
  outer loop
    vertex 1289.9472430131761 228.76003139566848 3.0000086631150085
    vertex 1289.789305301953 229.1467034975945 8.663114996831922e-06
    vertex 1289.9472429394082 228.76003119179146 8.663115008111788e-06
  endloop
endfacet
facet normal -0.9257536246805003 -0.3781272621630359 4.8460867992260115e-08
  outer loop
    vertex 1289.789305301953 229.1467034975945 8.663114996831922e-06
    vertex 1289.9472430131761 228.76003139566848 3.0000086631150085
    vertex 1289.7893053757211 229.14670370147152 3.0000086631150027
  endloop
endfacet
facet normal -0.9219830169466293 0.3872303144925401 -3.644793257542991e-09
  outer loop
    vertex 1289.7814229174487 227.54672311819823 3.0000086631150085
    vertex 1289.9431626787618 227.9318202983007 8.663115008111788e-06
    vertex 1289.7814228436805 227.5467229143212 8.663115008111788e-06
  endloop
endfacet
facet normal -0.9219830169466293 0.3872303144925401 -3.644793257542991e-09
  outer loop
    vertex 1289.9431626787618 227.9318202983007 8.663115008111788e-06
    vertex 1289.7814229174487 227.54672311819823 3.0000086631150085
    vertex 1289.9431627525298 227.93182050217774 3.0000086631150085
  endloop
endfacet
facet normal -0.7903446272369106 0.6126625255373048 -2.2201850626919992e-08
  outer loop
    vertex 1289.525523696411 227.2166089590469 3.000008663115014
    vertex 1289.7814228436805 227.5467229143212 8.663115008111788e-06
    vertex 1289.5255236226428 227.21660875516986 8.663115019391653e-06
  endloop
endfacet
facet normal -0.7903446272369106 0.6126625255373048 -2.2201850626919992e-08
  outer loop
    vertex 1289.7814228436805 227.5467229143212 8.663115008111788e-06
    vertex 1289.525523696411 227.2166089590469 3.000008663115014
    vertex 1289.7814229174487 227.54672311819823 3.0000086631150085
  endloop
endfacet
facet normal -0.37812726216301884 0.9257536246805069 -5.3615384047614505e-08
  outer loop
    vertex 1288.8062318926338 226.80603712167525 3.000008663115014
    vertex 1289.1929041246688 226.96397455525332 8.663115019391653e-06
    vertex 1288.8062318188656 226.80603691779822 8.663115019391653e-06
  endloop
endfacet
facet normal -0.37812726216301884 0.9257536246805069 -5.3615384047614505e-08
  outer loop
    vertex 1289.1929041246688 226.96397455525332 8.663115019391653e-06
    vertex 1288.8062318926338 226.80603712167525 3.000008663115014
    vertex 1289.1929041984367 226.96397475913034 3.000008663115014
  endloop
endfacet
facet normal 0.9257536246805003 0.3781272621630358 -4.846086799046156e-08
  outer loop
    vertex 1286.8522375448724 227.94704803834063 8.663115008111788e-06
    vertex 1287.0101752560956 227.56037593641463 3.000008663115014
    vertex 1287.0101751823277 227.5603757325376 8.663115019391653e-06
  endloop
endfacet
facet normal 0.9257536246805003 0.3781272621630358 -4.846086799046156e-08
  outer loop
    vertex 1287.0101752560956 227.56037593641463 3.000008663115014
    vertex 1286.8522375448724 227.94704803834063 8.663115008111788e-06
    vertex 1286.8522376186406 227.94704824221768 3.0000086631150085
  endloop
endfacet
facet normal -0.9920758717798576 -0.1256402190074282 3.293292145404187e-08
  outer loop
    vertex 1289.9997208991817 228.34565736067066 3.0000086631150085
    vertex 1289.9472429394082 228.76003119179146 8.663115008111788e-06
    vertex 1289.9997208254138 228.34565715679364 8.663115008111788e-06
  endloop
endfacet
facet normal -0.9920758717798576 -0.1256402190074282 3.293292145404187e-08
  outer loop
    vertex 1289.9472429394082 228.76003119179146 8.663115008111788e-06
    vertex 1289.9997208991817 228.34565736067066 3.0000086631150085
    vertex 1289.9472430131761 228.76003139566848 3.0000086631150085
  endloop
endfacet
facet normal 0.387230314492631 0.9219830169465884 -7.217881001442772e-08
  outer loop
    vertex 1287.5929236151637 226.97185721740277 3.000008663115014
    vertex 1287.978020925375 226.81011717844444 8.663115019391653e-06
    vertex 1287.5929235413955 226.97185701352572 8.663115019391653e-06
  endloop
endfacet
facet normal 0.387230314492631 0.9219830169465884 -7.217881001442772e-08
  outer loop
    vertex 1287.978020925375 226.81011717844444 8.663115019391653e-06
    vertex 1287.5929236151637 226.97185721740277 3.000008663115014
    vertex 1287.9780209991432 226.8101173823215 3.000008663115014
  endloop
endfacet
facet normal 0.7963427979394561 0.6048455572871104 -6.068628645733176e-08
  outer loop
    vertex 1287.0101751823277 227.5603757325376 8.663115019391653e-06
    vertex 1287.2628094560123 227.2277564384406 3.000008663115014
    vertex 1287.262809382244 227.22775623456354 8.663115019391653e-06
  endloop
endfacet
facet normal 0.7963427979394561 0.6048455572871104 -6.068628645733176e-08
  outer loop
    vertex 1287.2628094560123 227.2277564384406 3.000008663115014
    vertex 1287.0101751823277 227.5603757325376 8.663115019391653e-06
    vertex 1287.0101752560956 227.56037593641463 3.000008663115014
  endloop
endfacet
facet normal 0.612662525537334 0.7903446272368853 -6.87760347913894e-08
  outer loop
    vertex 1287.2628094560123 227.2277564384406 3.000008663115014
    vertex 1287.5929235413955 226.97185701352572 8.663115019391653e-06
    vertex 1287.262809382244 227.22775623456354 8.663115019391653e-06
  endloop
endfacet
facet normal 0.612662525537334 0.7903446272368853 -6.87760347913894e-08
  outer loop
    vertex 1287.5929235413955 226.97185701352572 8.663115019391653e-06
    vertex 1287.2628094560123 227.2277564384406 3.000008663115014
    vertex 1287.5929236151637 226.97185721740277 3.000008663115014
  endloop
endfacet
facet normal -0.12564021900720196 0.9920758717798847 -6.433107971565061e-08
  outer loop
    vertex 1288.391857857636 226.7535592356698 3.000008663115014
    vertex 1288.8062318188656 226.80603691779822 8.663115019391653e-06
    vertex 1288.3918577838679 226.75355903179275 8.663115019391653e-06
  endloop
endfacet
facet normal -0.12564021900720196 0.9920758717798847 -6.433107971565061e-08
  outer loop
    vertex 1288.8062318188656 226.80603691779822 8.663115019391653e-06
    vertex 1288.391857857636 226.7535592356698 3.000008663115014
    vertex 1288.8062318926338 226.80603712167525 3.000008663115014
  endloop
endfacet
facet normal -0.990789787700291 0.13540899744408405 1.51606507437419e-08
  outer loop
    vertex 1289.9431627525298 227.93182050217774 3.0000086631150085
    vertex 1289.9997208254138 228.34565715679364 8.663115008111788e-06
    vertex 1289.9431626787618 227.9318202983007 8.663115008111788e-06
  endloop
endfacet
facet normal -0.990789787700291 0.13540899744408405 1.51606507437419e-08
  outer loop
    vertex 1289.9997208254138 228.34565715679364 8.663115008111788e-06
    vertex 1289.9431627525298 227.93182050217774 3.0000086631150085
    vertex 1289.9997208991817 228.34565736067066 3.0000086631150085
  endloop
endfacet
facet normal 0.135408997443674 0.9907897877003449 -7.066271861319992e-08
  outer loop
    vertex 1287.9780209991432 226.8101173823215 3.000008663115014
    vertex 1288.3918577838679 226.75355903179275 8.663115019391653e-06
    vertex 1287.978020925375 226.81011717844444 8.663115019391653e-06
  endloop
endfacet
facet normal 0.135408997443674 0.9907897877003449 -7.066271861319992e-08
  outer loop
    vertex 1288.3918577838679 226.75355903179275 8.663115019391653e-06
    vertex 1287.9780209991432 226.8101173823215 3.000008663115014
    vertex 1288.391857857636 226.7535592356698 3.000008663115014
  endloop
endfacet
facet normal 0.990789787700291 -0.13540899744408405 -1.5160650744268104e-08
  outer loop
    vertex 1286.8563178055188 228.7752589318314 8.663115008111788e-06
    vertex 1286.799759732635 228.3614222772155 3.0000086631150085
    vertex 1286.7997596588668 228.36142207333845 8.663115008111788e-06
  endloop
endfacet
facet normal 0.990789787700291 -0.13540899744408405 -1.5160650744268104e-08
  outer loop
    vertex 1286.799759732635 228.3614222772155 3.0000086631150085
    vertex 1286.8563178055188 228.7752589318314 8.663115008111788e-06
    vertex 1286.856317879287 228.7752591357084 3.0000086631150085
  endloop
endfacet
facet normal -0.3872303144926309 -0.9219830169465884 7.217881001442718e-08
  outer loop
    vertex 1289.2065570166533 229.73522242048338 3.0000086631150027
    vertex 1288.8214595589056 229.89696205168764 8.663114996831922e-06
    vertex 1289.206556942885 229.73522221660636 8.663114996831922e-06
  endloop
endfacet
facet normal -0.3872303144926309 -0.9219830169465884 7.217881001442718e-08
  outer loop
    vertex 1288.8214595589056 229.89696205168764 8.663114996831922e-06
    vertex 1289.2065570166533 229.73522242048338 3.0000086631150027
    vertex 1288.8214596326736 229.89696225556466 3.0000086631150027
  endloop
endfacet
facet normal -0.604845557287144 0.796342797939432 -3.9245888557258883e-08
  outer loop
    vertex 1289.1929041984367 226.96397475913034 3.000008663115014
    vertex 1289.5255236226428 227.21660875516986 8.663115019391653e-06
    vertex 1289.1929041246688 226.96397455525332 8.663115019391653e-06
  endloop
endfacet
facet normal -0.604845557287144 0.796342797939432 -3.9245888557258883e-08
  outer loop
    vertex 1289.5255236226428 227.21660875516986 8.663115019391653e-06
    vertex 1289.1929041984367 226.96397475913034 3.000008663115014
    vertex 1289.525523696411 227.2166089590469 3.000008663115014
  endloop
endfacet
facet normal 0.70565023332458 0.7085603349107895 2.7511766279007213e-07
  outer loop
    vertex 1287.2082556877651 248.70080173127394 3.0000024295279104
    vertex 1292.2766211189273 243.65325392206893 1.132345213301633e-05
    vertex 1287.2082566236224 248.70080232757937 7.338603631179552e-06
  endloop
endfacet
facet normal 0.70565023332458 0.7085603349107895 2.7511766279007213e-07
  outer loop
    vertex 1292.2766211189273 243.65325392206893 1.132345213301633e-05
    vertex 1287.2082556877651 248.70080173127394 3.0000024295279104
    vertex 1292.2766201830698 243.6532533257634 3.0000064143764122
  endloop
endfacet
facet normal -1.4458995798965272e-05 0.9999999998954613 1.216226626831041e-07
  outer loop
    vertex 1282.128075451595 248.70072887326097 8.482157657407895e-06
    vertex 1287.2082556877651 248.70080173127394 3.0000024295279104
    vertex 1287.2082566236224 248.70080232757937 7.338603631179552e-06
  endloop
endfacet
facet normal -1.4458995798965272e-05 0.9999999998954613 1.216226626831041e-07
  outer loop
    vertex 1287.2082556877651 248.70080173127394 3.0000024295279104
    vertex 1282.128075451595 248.70072887326097 8.482157657407895e-06
    vertex 1282.1280745157374 248.70072827695557 3.000003573081937
  endloop
endfacet
facet normal -0.6320589920790038 0.7749202736617956 4.172293162754318e-08
  outer loop
    vertex 1267.9406515567368 243.6810543869943 2.999999332110786
    vertex 1274.0891962451476 248.69607777454968 7.796173332774714e-06
    vertex 1267.940650627406 243.68105406438485 0.0
  endloop
endfacet
facet normal -0.6320589920790038 0.7749202736617956 4.172293162754318e-08
  outer loop
    vertex 1274.0891962451476 248.69607777454968 7.796173332774714e-06
    vertex 1267.9406515567368 243.6810543869943 2.999999332110786
    vertex 1274.0891971744784 248.69607809715916 3.0000071282841185
  endloop
endfacet
facet normal -0.9999999999999802 4.4843187263478024e-13 1.985473582605087e-07
  outer loop
    vertex 1267.9406515567318 229.56793020082267 3.0000057557408053
    vertex 1267.940650627406 243.68105406438485 0.0
    vertex 1267.9406506274008 229.56792987821322 6.42363001945867e-06
  endloop
endfacet
facet normal -0.9999999999999802 4.4843187263478024e-13 1.985473582605087e-07
  outer loop
    vertex 1267.940650627406 243.68105406438485 0.0
    vertex 1267.9406515567318 229.56793020082267 3.0000057557408053
    vertex 1267.9406515567368 243.6810543869943 2.999999332110786
  endloop
endfacet
facet normal -0.7056502333248545 -0.7085603349105364 2.1670203511280652e-07
  outer loop
    vertex 1273.0369299128204 224.4925813303753 1.1367918672977595e-05
    vertex 1267.9406515567318 229.56793020082267 3.0000057557408053
    vertex 1267.9406506274008 229.56792987821322 6.42363001945867e-06
  endloop
endfacet
facet normal -0.7056502333248545 -0.7085603349105364 2.1670203511280652e-07
  outer loop
    vertex 1267.9406515567318 229.56793020082267 3.0000057557408053
    vertex 1273.0369299128204 224.4925813303753 1.1367918672977595e-05
    vertex 1273.0369308421512 224.4925816529847 3.0000107000294585
  endloop
endfacet
facet normal 0.8776462997864121 0.11554432736520306 0.4651736029537169
  outer loop
    vertex 1285.1928895391452 240.49948923120544 3.0000117111954996
    vertex 1284.9127709453926 238.60126920910093 4.000011711195498
    vertex 1285.442794946935 238.6012692021954 3.0000117111954996
  endloop
endfacet
facet normal 0.8776462997864121 0.11554432736520306 0.4651736029537169
  outer loop
    vertex 1284.9127709453926 238.60126920910093 4.000011711195498
    vertex 1285.1928895391452 240.49948923120544 3.0000117111954996
    vertex 1284.68092566745 240.36230893254955 4.000011711195498
  endloop
endfacet
facet normal 0.8776462991349182 -0.11554432727943079 0.46517360420419984
  outer loop
    vertex 1285.442794946935 238.6012692021954 3.0000117111954996
    vertex 1284.68092566745 236.8402294856523 4.000011711195503
    vertex 1285.1928895391452 236.70304917318535 3.0000117111955054
  endloop
endfacet
facet normal 0.8776462991349182 -0.11554432727943079 0.46517360420419984
  outer loop
    vertex 1284.68092566745 236.8402294856523 4.000011711195503
    vertex 1285.442794946935 238.6012692021954 3.0000117111954996
    vertex 1284.9127709453926 238.60126920910093 4.000011711195498
  endloop
endfacet
facet normal -0.8178361546364118 -0.3387588270494232 0.46517360336290164
  outer loop
    vertex 1272.2160821846137 235.19920170910092 4.000011711195509
    vertex 1271.0243823547246 236.70304917318535 3.000011711195511
    vertex 1271.7570679375406 234.93418970219537 3.000011711195511
  endloop
endfacet
facet normal -0.8178361546364118 -0.3387588270494232 0.46517360336290164
  outer loop
    vertex 1271.0243823547246 236.70304917318535 3.000011711195511
    vertex 1272.2160821846137 235.19920170910092 4.000011711195509
    vertex 1271.5363462233352 236.8402294856523 4.000011711195509
  endloop
endfacet
facet normal -0.8178361564163236 0.33875882778669575 0.465173599696671
  outer loop
    vertex 1272.2160821846137 242.0033367091009 4.000011711195503
    vertex 1271.0243823547246 240.49948923120544 3.0000117111955054
    vertex 1271.5363462233352 240.36230893254955 4.000011711195503
  endloop
endfacet
facet normal -0.8178361564163236 0.33875882778669575 0.465173599696671
  outer loop
    vertex 1271.0243823547246 240.49948923120544 3.0000117111955054
    vertex 1272.2160821846137 242.0033367091009 4.000011711195503
    vertex 1271.7570679375406 242.2683487021954 3.0000117111955054
  endloop
endfacet
facet normal -0.8776463002401944 -0.11554432742494464 0.46517360208272335
  outer loop
    vertex 1271.5363462233352 236.8402294856523 4.000011711195509
    vertex 1270.774476946935 238.6012692021954 3.000011711195511
    vertex 1271.0243823547246 236.70304917318535 3.000011711195511
  endloop
endfacet
facet normal -0.8776463002401944 -0.11554432742494464 0.46517360208272335
  outer loop
    vertex 1270.774476946935 238.6012692021954 3.000011711195511
    vertex 1271.5363462233352 236.8402294856523 4.000011711195509
    vertex 1271.3045009453926 238.60126920910093 4.000011711195509
  endloop
endfacet
facet normal -0.8776463008916885 0.11554432751071689 0.4651736008322402
  outer loop
    vertex 1271.3045009453926 238.60126920910093 4.000011711195509
    vertex 1271.0243823547246 240.49948923120544 3.0000117111955054
    vertex 1270.774476946935 238.6012692021954 3.000011711195511
  endloop
endfacet
facet normal -0.8776463008916885 0.11554432751071689 0.4651736008322402
  outer loop
    vertex 1271.0243823547246 240.49948923120544 3.0000117111955054
    vertex 1271.3045009453926 238.60126920910093 4.000011711195509
    vertex 1271.5363462233352 240.36230893254955 4.000011711195503
  endloop
endfacet
facet normal 8.348465732973266e-08 8.449837174013334e-08 0.9999999999999929
  outer loop
    vertex 1273.0369308421512 224.4925816529847 3.0000107000294585
    vertex 1267.9406515567368 243.6810543869943 2.999999332110786
    vertex 1267.9406515567318 229.56793020082267 3.0000057557408053
  endloop
endfacet
facet normal 8.348465732973266e-08 8.449837174013334e-08 0.9999999999999929
  outer loop
    vertex 1267.9406515567368 243.6810543869943 2.999999332110786
    vertex 1273.0369308421512 224.4925816529847 3.0000107000294585
    vertex 1271.0243823547246 236.70304917318535 3.000011711195511
  endloop
endfacet
facet normal 8.348465732973266e-08 8.449837174013334e-08 0.9999999999999929
  outer loop
    vertex 1267.9406515567368 243.6810543869943 2.999999332110786
    vertex 1271.0243823547246 236.70304917318535 3.000011711195511
    vertex 1270.774476946935 238.6012692021954 3.000011711195511
  endloop
endfacet
facet normal 8.348465732973266e-08 8.449837174013334e-08 0.9999999999999929
  outer loop
    vertex 1271.0243823547246 236.70304917318535 3.000011711195511
    vertex 1273.0369308421512 224.4925816529847 3.0000107000294585
    vertex 1271.7570679375406 234.93418970219537 3.000011711195511
  endloop
endfacet
facet normal 8.348465732973266e-08 8.449837174013334e-08 0.9999999999999929
  outer loop
    vertex 1271.7570679375406 234.93418970219537 3.000011711195511
    vertex 1273.0369308421512 224.4925816529847 3.0000107000294585
    vertex 1272.9226023837346 233.41523563899506 3.000011711195511
  endloop
endfacet
facet normal 8.348465732973266e-08 8.449837174013334e-08 0.9999999999999929
  outer loop
    vertex 1272.9226023837346 233.41523563899506 3.000011711195511
    vertex 1273.0369308421512 224.4925816529847 3.0000107000294585
    vertex 1274.4415564469348 232.24970119280113 3.000011711195511
  endloop
endfacet
facet normal 8.348465732973266e-08 8.449837174013334e-08 0.9999999999999929
  outer loop
    vertex 1274.4415564469348 232.24970119280113 3.000011711195511
    vertex 1273.0369308421512 224.4925816529847 3.0000107000294585
    vertex 1292.276621192695 224.4925815342526 3.0000117111955054
  endloop
endfacet
facet normal 8.348465732973266e-08 8.449837174013334e-08 0.9999999999999929
  outer loop
    vertex 1274.4415564469348 232.24970119280113 3.000011711195511
    vertex 1292.276621192695 224.4925815342526 3.0000117111955054
    vertex 1276.2104159179248 231.51701560998495 3.000011711195511
  endloop
endfacet
facet normal 8.348465732973266e-08 8.449837174013334e-08 0.9999999999999929
  outer loop
    vertex 1276.2104159179248 231.51701560998495 3.000011711195511
    vertex 1292.276621192695 224.4925815342526 3.0000117111955054
    vertex 1278.108635946935 231.26711020219537 3.000011711195511
  endloop
endfacet
facet normal 8.348465732973266e-08 8.449837174013334e-08 0.9999999999999929
  outer loop
    vertex 1278.108635946935 231.26711020219537 3.000011711195511
    vertex 1292.276621192695 224.4925815342526 3.0000117111955054
    vertex 1287.5929236151637 226.97185721740277 3.000008663115014
  endloop
endfacet
facet normal 8.348465732973266e-08 8.449837174013334e-08 0.9999999999999929
  outer loop
    vertex 1278.108635946935 231.26711020219537 3.000011711195511
    vertex 1287.5929236151637 226.97185721740277 3.000008663115014
    vertex 1280.006855975945 231.51701560998495 3.000011711195511
  endloop
endfacet
facet normal 8.348465732973266e-08 8.449837174013334e-08 0.9999999999999929
  outer loop
    vertex 1280.006855975945 231.51701560998495 3.000011711195511
    vertex 1287.5929236151637 226.97185721740277 3.000008663115014
    vertex 1287.2628094560123 227.2277564384406 3.000008663115014
  endloop
endfacet
facet normal 8.348465732973266e-08 8.449837174013334e-08 0.9999999999999929
  outer loop
    vertex 1280.006855975945 231.51701560998495 3.000011711195511
    vertex 1287.2628094560123 227.2277564384406 3.000008663115014
    vertex 1281.775715446935 232.24970119280113 3.0000117111955054
  endloop
endfacet
facet normal 8.348465732973266e-08 8.449837174013334e-08 0.9999999999999929
  outer loop
    vertex 1281.775715446935 232.24970119280113 3.0000117111955054
    vertex 1287.2628094560123 227.2277564384406 3.000008663115014
    vertex 1287.0101752560956 227.56037593641463 3.000008663115014
  endloop
endfacet
facet normal 8.348465732973266e-08 8.449837174013334e-08 0.9999999999999929
  outer loop
    vertex 1281.775715446935 232.24970119280113 3.0000117111955054
    vertex 1287.0101752560956 227.56037593641463 3.000008663115014
    vertex 1283.2946695101355 233.41523563899506 3.0000117111955054
  endloop
endfacet
facet normal 8.348465732973266e-08 8.449837174013334e-08 0.9999999999999929
  outer loop
    vertex 1283.2946695101355 233.41523563899506 3.0000117111955054
    vertex 1287.0101752560956 227.56037593641463 3.000008663115014
    vertex 1286.8522376186406 227.94704824221768 3.0000086631150085
  endloop
endfacet
facet normal 8.348465732973266e-08 8.449837174013334e-08 0.9999999999999929
  outer loop
    vertex 1283.2946695101355 233.41523563899506 3.0000117111955054
    vertex 1286.8522376186406 227.94704824221768 3.0000086631150085
    vertex 1284.4602039563292 234.9341897021954 3.0000117111955054
  endloop
endfacet
facet normal 8.348465732973266e-08 8.449837174013334e-08 0.9999999999999929
  outer loop
    vertex 1284.4602039563292 234.9341897021954 3.0000117111955054
    vertex 1286.8522376186406 227.94704824221768 3.0000086631150085
    vertex 1285.1928895391452 236.70304917318535 3.0000117111955054
  endloop
endfacet
facet normal 8.348465732973266e-08 8.449837174013334e-08 0.9999999999999929
  outer loop
    vertex 1285.1928895391452 236.70304917318535 3.0000117111955054
    vertex 1286.8522376186406 227.94704824221768 3.0000086631150085
    vertex 1285.442794946935 238.6012692021954 3.0000117111954996
  endloop
endfacet
facet normal 8.348465732973266e-08 8.449837174013334e-08 0.9999999999999929
  outer loop
    vertex 1285.442794946935 238.6012692021954 3.0000117111954996
    vertex 1286.8522376186406 227.94704824221768 3.0000086631150085
    vertex 1286.799759732635 228.3614222772155 3.0000086631150085
  endloop
endfacet
facet normal 8.348465732973266e-08 8.449837174013334e-08 0.9999999999999929
  outer loop
    vertex 1287.5929236151637 226.97185721740277 3.000008663115014
    vertex 1292.276621192695 224.4925815342526 3.0000117111955054
    vertex 1287.9780209991432 226.8101173823215 3.000008663115014
  endloop
endfacet
facet normal 8.348465732973266e-08 8.449837174013334e-08 0.9999999999999929
  outer loop
    vertex 1287.9780209991432 226.8101173823215 3.000008663115014
    vertex 1292.276621192695 224.4925815342526 3.0000117111955054
    vertex 1288.391857857636 226.7535592356698 3.000008663115014
  endloop
endfacet
facet normal 8.348465732973266e-08 8.449837174013334e-08 0.9999999999999929
  outer loop
    vertex 1288.391857857636 226.7535592356698 3.000008663115014
    vertex 1292.276621192695 224.4925815342526 3.0000117111955054
    vertex 1288.8062318926338 226.80603712167525 3.000008663115014
  endloop
endfacet
facet normal 8.348465732973266e-08 8.449837174013334e-08 0.9999999999999929
  outer loop
    vertex 1288.8062318926338 226.80603712167525 3.000008663115014
    vertex 1292.276621192695 224.4925815342526 3.0000117111955054
    vertex 1289.1929041984367 226.96397475913034 3.000008663115014
  endloop
endfacet
facet normal 8.348465732973266e-08 8.449837174013334e-08 0.9999999999999929
  outer loop
    vertex 1289.1929041984367 226.96397475913034 3.000008663115014
    vertex 1292.276621192695 224.4925815342526 3.0000117111955054
    vertex 1289.525523696411 227.2166089590469 3.000008663115014
  endloop
endfacet
facet normal 8.348465732973266e-08 8.449837174013334e-08 0.9999999999999929
  outer loop
    vertex 1289.525523696411 227.2166089590469 3.000008663115014
    vertex 1292.276621192695 224.4925815342526 3.0000117111955054
    vertex 1289.7814229174487 227.54672311819823 3.0000086631150085
  endloop
endfacet
facet normal 8.348465732973266e-08 8.449837174013334e-08 0.9999999999999929
  outer loop
    vertex 1289.7814229174487 227.54672311819823 3.0000086631150085
    vertex 1292.276621192695 224.4925815342526 3.0000117111955054
    vertex 1289.9431627525298 227.93182050217774 3.0000086631150085
  endloop
endfacet
facet normal 8.348465732973266e-08 8.449837174013334e-08 0.9999999999999929
  outer loop
    vertex 1289.9431627525298 227.93182050217774 3.0000086631150085
    vertex 1292.276621192695 224.4925815342526 3.0000117111955054
    vertex 1289.9997208991817 228.34565736067066 3.0000086631150085
  endloop
endfacet
facet normal 8.348465732973266e-08 8.449837174013334e-08 0.9999999999999929
  outer loop
    vertex 1289.9997208991817 228.34565736067066 3.0000086631150085
    vertex 1292.276621192695 224.4925815342526 3.0000117111955054
    vertex 1292.2766201830698 243.6532533257634 3.0000064143764122
  endloop
endfacet
facet normal 8.348465732973266e-08 8.449837174013334e-08 0.9999999999999929
  outer loop
    vertex 1282.1280755501457 244.68246179490905 3.0000115086749597
    vertex 1287.2082556877651 248.70080173127394 3.0000024295279104
    vertex 1282.1280745157374 248.70072827695557 3.000003573081937
  endloop
endfacet
facet normal 8.348465732973266e-08 8.449837174013334e-08 0.9999999999999929
  outer loop
    vertex 1287.2082556877651 248.70080173127394 3.0000024295279104
    vertex 1282.1280755501457 244.68246179490905 3.0000115086749597
    vertex 1283.2946695101355 243.78730276539574 3.0000117111954996
  endloop
endfacet
facet normal 8.348465732973266e-08 8.449837174013334e-08 0.9999999999999929
  outer loop
    vertex 1287.2082556877651 248.70080173127394 3.0000024295279104
    vertex 1283.2946695101355 243.78730276539574 3.0000117111954996
    vertex 1284.4602039563292 242.26834870219542 3.0000117111954996
  endloop
endfacet
facet normal 8.348465732973266e-08 8.449837174013334e-08 0.9999999999999929
  outer loop
    vertex 1287.2082556877651 248.70080173127394 3.0000024295279104
    vertex 1284.4602039563292 242.26834870219542 3.0000117111954996
    vertex 1285.1928895391452 240.49948923120544 3.0000117111954996
  endloop
endfacet
facet normal 8.348465732973266e-08 8.449837174013334e-08 0.9999999999999929
  outer loop
    vertex 1287.2082556877651 248.70080173127394 3.0000024295279104
    vertex 1285.1928895391452 240.49948923120544 3.0000117111954996
    vertex 1285.442794946935 238.6012692021954 3.0000117111954996
  endloop
endfacet
facet normal 8.348465732973266e-08 8.449837174013334e-08 0.9999999999999929
  outer loop
    vertex 1287.2082556877651 248.70080173127394 3.0000024295279104
    vertex 1285.442794946935 238.6012692021954 3.0000117111954996
    vertex 1286.799759732635 228.3614222772155 3.0000086631150085
  endloop
endfacet
facet normal 8.348465732973266e-08 8.449837174013334e-08 0.9999999999999929
  outer loop
    vertex 1287.2082556877651 248.70080173127394 3.0000024295279104
    vertex 1286.799759732635 228.3614222772155 3.0000086631150085
    vertex 1286.856317879287 228.7752591357084 3.0000086631150085
  endloop
endfacet
facet normal 8.348465732973266e-08 8.449837174013334e-08 0.9999999999999929
  outer loop
    vertex 1287.2082556877651 248.70080173127394 3.0000024295279104
    vertex 1286.856317879287 228.7752591357084 3.0000086631150085
    vertex 1287.018057714368 229.16035651968792 3.0000086631150085
  endloop
endfacet
facet normal 8.348465732973266e-08 8.449837174013334e-08 0.9999999999999929
  outer loop
    vertex 1287.2082556877651 248.70080173127394 3.0000024295279104
    vertex 1287.018057714368 229.16035651968792 3.0000086631150085
    vertex 1287.273956935406 229.49047067883924 3.0000086631150027
  endloop
endfacet
facet normal 8.348465732973266e-08 8.449837174013334e-08 0.9999999999999929
  outer loop
    vertex 1287.2082556877651 248.70080173127394 3.0000024295279104
    vertex 1287.273956935406 229.49047067883924 3.0000086631150027
    vertex 1292.2766201830698 243.6532533257634 3.0000064143764122
  endloop
endfacet
facet normal 8.348465732973266e-08 8.449837174013334e-08 0.9999999999999929
  outer loop
    vertex 1292.2766201830698 243.6532533257634 3.0000064143764122
    vertex 1287.273956935406 229.49047067883924 3.0000086631150027
    vertex 1287.60657643338 229.74310487875582 3.0000086631150027
  endloop
endfacet
facet normal 8.348465732973266e-08 8.449837174013334e-08 0.9999999999999929
  outer loop
    vertex 1292.2766201830698 243.6532533257634 3.0000064143764122
    vertex 1287.60657643338 229.74310487875582 3.0000086631150027
    vertex 1287.993248739183 229.9010425162109 3.0000086631150027
  endloop
endfacet
facet normal 8.348465732973266e-08 8.449837174013334e-08 0.9999999999999929
  outer loop
    vertex 1292.2766201830698 243.6532533257634 3.0000064143764122
    vertex 1287.993248739183 229.9010425162109 3.0000086631150027
    vertex 1288.407622774181 229.95352040221636 3.0000086631150027
  endloop
endfacet
facet normal 8.348465732973266e-08 8.449837174013334e-08 0.9999999999999929
  outer loop
    vertex 1292.2766201830698 243.6532533257634 3.0000064143764122
    vertex 1288.407622774181 229.95352040221636 3.0000086631150027
    vertex 1288.8214596326736 229.89696225556466 3.0000086631150027
  endloop
endfacet
facet normal 8.348465732973266e-08 8.449837174013334e-08 0.9999999999999929
  outer loop
    vertex 1292.2766201830698 243.6532533257634 3.0000064143764122
    vertex 1288.8214596326736 229.89696225556466 3.0000086631150027
    vertex 1289.2065570166533 229.73522242048338 3.0000086631150027
  endloop
endfacet
facet normal 8.348465732973266e-08 8.449837174013334e-08 0.9999999999999929
  outer loop
    vertex 1292.2766201830698 243.6532533257634 3.0000064143764122
    vertex 1289.2065570166533 229.73522242048338 3.0000086631150027
    vertex 1289.5366711758047 229.47932319944556 3.0000086631150027
  endloop
endfacet
facet normal 8.348465732973266e-08 8.449837174013334e-08 0.9999999999999929
  outer loop
    vertex 1292.2766201830698 243.6532533257634 3.0000064143764122
    vertex 1289.5366711758047 229.47932319944556 3.0000086631150027
    vertex 1289.7893053757211 229.14670370147152 3.0000086631150027
  endloop
endfacet
facet normal 8.348465732973266e-08 8.449837174013334e-08 0.9999999999999929
  outer loop
    vertex 1292.2766201830698 243.6532533257634 3.0000064143764122
    vertex 1289.7893053757211 229.14670370147152 3.0000086631150027
    vertex 1289.9472430131761 228.76003139566848 3.0000086631150085
  endloop
endfacet
facet normal 8.348465732973266e-08 8.449837174013334e-08 0.9999999999999929
  outer loop
    vertex 1292.2766201830698 243.6532533257634 3.0000064143764122
    vertex 1289.9472430131761 228.76003139566848 3.0000086631150085
    vertex 1289.9997208991817 228.34565736067066 3.0000086631150085
  endloop
endfacet
facet normal 8.348465732973266e-08 8.449837174013334e-08 0.9999999999999929
  outer loop
    vertex 1267.9406515567368 243.6810543869943 2.999999332110786
    vertex 1271.0243823547246 240.49948923120544 3.0000117111955054
    vertex 1274.0891971744784 248.69607809715916 3.0000071282841185
  endloop
endfacet
facet normal 8.348465732973266e-08 8.449837174013334e-08 0.9999999999999929
  outer loop
    vertex 1271.0243823547246 240.49948923120544 3.0000117111955054
    vertex 1267.9406515567368 243.6810543869943 2.999999332110786
    vertex 1270.774476946935 238.6012692021954 3.000011711195511
  endloop
endfacet
facet normal 8.348465732973266e-08 8.449837174013334e-08 0.9999999999999929
  outer loop
    vertex 1274.0891971744784 248.69607809715916 3.0000071282841185
    vertex 1271.0243823547246 240.49948923120544 3.0000117111955054
    vertex 1271.7570679375406 242.2683487021954 3.0000117111955054
  endloop
endfacet
facet normal 8.348465732973266e-08 8.449837174013334e-08 0.9999999999999929
  outer loop
    vertex 1274.0891971744784 248.69607809715916 3.0000071282841185
    vertex 1271.7570679375406 242.2683487021954 3.0000117111955054
    vertex 1272.9226023837346 243.78730276539574 3.0000117111955054
  endloop
endfacet
facet normal 8.348465732973266e-08 8.449837174013334e-08 0.9999999999999929
  outer loop
    vertex 1274.0891971744784 248.69607809715916 3.0000071282841185
    vertex 1272.9226023837346 243.78730276539574 3.0000117111955054
    vertex 1274.089196343725 244.68246179490893 3.000010985304397
  endloop
endfacet
endsolid X5S-Component-lot-2
